<svg id="Capa_1" enable-background="new 0 0 512 512" height="512" viewBox="0 0 512 512" width="512" xmlns="http://www.w3.org/2000/svg"><g><path d="m447.959 511.999h-6.217v-37.101h-13.678v-4.866h33.573v4.866h-13.678z" fill="#00623d"/><path d="m489.618 502.268 13.056-32.236h9.326v41.967h-6.217v-35.277l-14.3 35.277h-3.73l-14.3-35.277v35.277h-6.217v-41.967h9.326z" fill="#00623d"/><path d="m503.605 251.803c0 138.934-112.683 251.802-251.923 251.802-138.999-.238-251.682-112.868-251.682-251.802s112.683-251.802 251.923-251.802c138.999 0 251.682 112.629 251.682 251.802z" fill="#fff"/><path d="m276.888 108.805c-2.15-.478-12.901-2.152-25.324-2.152-12.422 0-23.173 1.674-25.323 2.152-1.194.239-1.673-.957-.717-1.674.955-.717 26.04-19.847 26.04-19.847s25.085 19.13 26.041 19.847c.955.717.477 1.913-.717 1.674zm-43.719 124.586s-1.434.478-1.672 1.674c5.255 4.065 8.839 13.391 19.829 13.391s14.573-9.326 19.829-13.391c-.239-1.196-1.672-1.674-1.672-1.674s-6.929 1.674-18.157 1.674c-11.229-.001-18.157-1.674-18.157-1.674zm18.395-15.544c-3.106 0-3.822-1.195-5.734-1.195-1.911 0-5.734 1.674-6.689 3.108 0 .718.238 1.435.955 1.914 4.539.717 6.45 3.108 11.706 3.108s7.167-2.391 11.706-3.108c.478-.478.717-1.196.955-1.914-.717-1.434-4.778-3.108-6.689-3.108-2.626 0-3.343 1.195-6.21 1.195zm251.085 47.586c-.238 5.979-.955 11.956-1.672 17.935-28.429 4.783-38.702-20.566-67.848-19.369 1.673 6.217 3.106 12.435 4.301 18.891 24.129 0 33.684 22.478 60.442 19.13-1.434 6.935-3.106 13.63-5.017 20.326-21.262 2.152-28.669-18.892-53.036-18.413.239 3.587.239 6.935.239 10.522v5.978c20.784-.239 27.712 19.13 47.541 18.174-2.389 6.695-5.256 13.391-8.361 19.848-14.334-.718-19.112-19.131-40.852-17.696-.717 4.783-1.434 9.326-2.389 13.869 18.873-1.434 22.934 16.021 36.552 17.457-3.345 6.217-7.167 12.435-10.99 18.413-8.122-4.304-15.05-17.217-30.101-18.173 1.672-4.783 2.867-9.565 4.062-14.587-13.378 0-28.907-5.261-41.808-16.978 4.061-23.913-32.969-48.304-32.969-65.761 0-18.891 9.556-29.412 9.556-55 0-19.13-9.318-39.695-23.173-53.803-2.628-2.631-5.494-5.022-8.601-6.935 12.662 15.782 22.696 34.673 22.696 56.195 0 24.152-11.228 36.826-11.228 59.065 0 22.238 32.49 41.608 32.49 64.565 0 9.087-2.866 17.934-12.423 35.152 14.573 14.587 33.685 22.478 45.869 22.478 4.062 0 6.212-1.196 7.645-4.305 1.194-2.63 2.39-5.499 3.584-8.13 13.139.478 19.351 12.435 26.518 17.456-4.062 5.5-8.123 10.522-12.662 15.544-5.017-5.5-11.467-14.587-21.262-17.217-1.672 3.348-3.583 6.695-5.494 10.044 8.362 2.152 14.095 10.76 18.395 16.261-4.778 5.022-9.795 9.565-14.812 14.109-3.106-5.022-8.122-11.239-13.856-14.826-2.15 2.87-4.301 5.5-6.45 8.131 4.778 3.348 9.078 9.087 11.706 13.869-5.973 4.783-12.185 9.326-18.396 13.631-3.106-25.587-37.985-43.043-28.668-72.695-3.106 5.261-6.69 11.717-6.69 19.609 0 21.522 22.934 38.5 24.607 59.782-4.778 2.87-9.556 5.5-14.573 8.13-.716-23.434-25.085-49.021-25.085-68.39 0-21.522 28.191-43.043 28.191-68.391 0-25.347-32.491-43.043-32.491-65.281 0-22.239 13.857-35.152 13.857-63.609 0-20.804-9.795-42.086-25.324-55.478-2.628-2.391-5.256-4.304-8.601-5.978 14.573 17.457 22.935 33 22.935 56.912 0 26.783-15.768 41.848-15.768 67.913 0 26.304 31.774 40.891 31.774 65.282 0 24.39-29.624 45.195-29.624 70.303 0 22.957 26.04 45.674 26.518 72.935-5.734 2.391-11.468 4.783-17.44 6.935 3.344-27.5-26.041-55.717-26.041-78.195 0-24.391 30.818-45.434 30.818-71.978 0-26.304-31.296-38.739-31.296-65.761s19.112-42.086 19.112-71.978c0-23.434-11.467-44.239-28.429-57.391-.238-.239-.717-.478-.955-.718-1.673-1.195-2.867.239-1.673 1.674 11.946 14.825 18.157 29.891 18.157 52.13 0 27.499-21.979 49.739-21.979 76.282 0 31.326 29.624 40.173 29.624 65.999 0 25.587-31.773 46.152-31.773 73.413 0 25.347 30.101 53.326 24.845 82.499-5.973 1.674-12.184 2.87-18.395 4.066 5.734-36.348-23.89-62.413-23.89-86.325 0-25.826 32.729-48.783 32.729-73.891 0-23.674-23.651-31.565-26.757-55.717-.478-3.348-3.106-5.739-6.689-5.261-4.778.957-10.989 4.065-20.545 4.065s-15.768-3.108-20.545-4.065c-3.584-.718-6.212 1.913-6.69 5.261-3.106 24.391-26.757 32.043-26.757 55.717 0 25.108 32.729 48.065 32.729 73.891 0 23.674-29.385 49.978-23.89 86.325-6.211-1.196-12.184-2.391-18.396-4.066-5.255-29.173 24.846-57.152 24.846-82.499 0-27.261-31.774-47.826-31.774-73.413 0-25.586 29.624-34.673 29.624-65.999 0-26.543-21.979-48.783-21.979-76.282 0-22.239 6.45-37.305 18.157-52.13 1.194-1.435-.238-2.87-1.672-1.674-.239.239-.717.478-.956.718-16.723 12.913-28.429 33.956-28.429 57.391 0 29.891 19.113 44.956 19.113 71.978s-31.297 39.457-31.297 65.761 30.818 47.347 30.818 71.978c0 22.478-29.384 50.695-26.04 78.195-5.973-2.152-11.706-4.304-17.44-6.935.478-27.261 26.518-49.978 26.518-72.935 0-25.108-29.624-45.913-29.624-70.303 0-24.391 31.773-39.217 31.773-65.282 0-26.304-15.767-41.13-15.767-67.913 0-23.913 8.362-39.695 22.934-56.912-3.106 1.674-5.972 3.587-8.6 5.978-15.051 13.392-24.846 34.674-24.846 55.478 0 28.456 13.857 41.369 13.857 63.609 0 22.238-32.491 39.934-32.491 65.281 0 25.348 28.19 46.87 28.19 68.391 0 19.37-24.129 44.956-25.085 68.39-5.017-2.63-9.794-5.26-14.573-8.13 1.911-21.282 24.607-38.261 24.607-59.782 0-7.892-3.584-14.348-6.69-19.609 9.318 29.652-25.562 47.108-28.668 72.695-6.45-4.305-12.423-8.848-18.396-13.631 2.628-4.783 6.928-10.521 11.706-13.869-2.15-2.63-4.3-5.5-6.45-8.131-5.494 3.348-10.512 9.804-13.856 14.826-5.018-4.543-10.034-9.326-14.812-14.109 4.3-5.5 10.033-13.869 18.395-16.261-1.911-3.348-3.822-6.456-5.494-10.044-9.557 2.63-16.245 11.717-21.262 17.217-4.539-5.022-8.601-10.283-12.662-15.544 7.406-4.783 13.378-16.739 26.518-17.456 1.194 2.87 2.15 5.499 3.583 8.13 1.434 3.109 3.584 4.305 7.646 4.305 12.184 0 31.296-7.892 45.868-22.478-9.556-17.217-12.422-26.065-12.422-35.152 0-22.957 32.49-42.087 32.49-64.565 0-22.239-11.228-34.913-11.228-59.065 0-21.761 9.794-40.413 22.695-56.195-3.106 1.913-5.972 4.304-8.6 6.935-13.857 14.108-23.173 34.673-23.173 53.803 0 25.587 9.556 36.108 9.556 55 0 17.457-37.03 41.848-32.729 65.761-12.901 11.717-28.429 16.978-41.808 16.978 1.194 5.022 2.628 9.804 4.061 14.587-15.289.717-22.217 13.869-30.101 18.173-4.061-5.978-7.645-12.196-10.989-18.413 13.617-1.435 17.679-18.891 36.551-17.457-.955-4.543-1.911-9.326-2.389-13.869-21.74-1.435-26.757 16.978-40.852 17.696-3.106-6.457-5.734-13.152-8.362-19.848 19.829.956 26.757-18.413 47.542-18.174 0-1.913 0-3.826 0-5.978 0-3.587 0-7.174.238-10.522-24.368-.478-32.012 20.566-53.036 18.413-1.911-6.696-3.583-13.392-5.017-20.326 26.757 3.348 36.313-19.13 60.442-19.13 1.194-6.456 2.389-12.674 4.3-18.891-29.146-1.196-39.419 24.152-67.848 19.369-.717-5.979-1.194-11.956-1.672-17.935 32.968 3.827 45.391-23.434 75.731-20.086 2.867-7.174 6.212-14.108 9.795-20.805-37.746-6.695-50.647 24.87-85.765 20.087 3.347-135.824 114.436-244.628 251.087-244.628 136.413 0 247.502 108.804 251.324 244.629-35.118 4.783-48.019-26.783-85.766-20.087 3.822 6.696 6.929 13.631 9.795 20.805 30.102-3.349 42.525 23.912 75.732 20.085zm-359.307-105.455c-18.395-7.652-40.852-5.739-59.963 6.457-2.867-17.935-12.662-33.717-26.518-43.282-1.911-1.435-3.822 0-3.822 2.152 2.867 37.782-19.112 70.303-46.108 99.238 27.951 8.37 51.603-27.499 87.677-15.064 13.138-19.371 29.622-36.11 48.734-49.501zm108.222-22.717c-23.412 0-43.002 13.152-48.019 30.369-.478 1.196.239 2.152 1.672 1.434 4.301-1.913 9.078-2.869 14.095-2.869 9.557 0 17.918 3.587 22.935 9.565 2.15 7.174 2.389 17.695 0 23.674-3.822-.957-5.256-3.827-9.078-3.827s-6.69 2.63-13.378 2.63c-6.45 0-7.167-3.108-11.467-3.108-5.018 0-5.973 5.26-5.973 11 0 26.065 23.89 61.934 49.452 61.934 25.324 0 49.214-35.869 49.214-61.934 0-5.739-1.195-10.76-6.45-11.478-2.628 1.913-5.018 3.587-10.99 3.587-6.45 0-8.362-2.63-12.184-2.63-4.539 0-4.062 9.804-9.557 10.283-3.583-8.848-3.822-20.086-.716-30.13 5.017-5.979 13.378-9.565 22.934-9.565 5.256 0 10.033.956 14.095 2.869 1.434.718 2.15-.238 1.672-1.434-5.493-17.218-25.084-30.37-48.257-30.37zm37.03 37.304c-5.495 0-12.184 1.674-16.245 6.218-.478 1.195-.478 3.108.239 4.304 10.034-3.587 19.112-3.587 23.412 1.195 2.39-2.152 3.106-4.065 3.106-6.217 0-3.109-3.584-5.5-10.512-5.5zm-81.465 11.956c4.778-5.022 15.29-4.783 26.041-.717.478-5.261-9.078-11.24-18.634-11.24-6.928 0-10.273 2.391-10.273 5.739-.24 2.153.477 4.066 2.866 6.218zm160.78-88.238c-18.396 1.196-34.402 7.652-47.303 18.173 5.495-15.543 12.423-29.173 21.262-42.565-23.412 2.391-43.002 11-57.336 25.826l-11.228-29.412 24.845-22-33.207-2.391-13.379-31.087-13.378 31.087-33.207 2.391 24.845 22-11.228 29.412c-14.334-14.586-33.924-23.195-57.336-25.826 8.839 13.152 15.767 26.783 21.262 42.565-12.901-10.521-28.908-16.977-47.303-18.173 10.99 14.348 20.785 29.413 28.19 45.674.717 1.913 2.628 2.391 4.539 1.434 25.324-12.434 53.753-19.608 83.854-19.608s58.531 7.174 83.854 19.608c1.911.957 3.583.239 4.539-1.434 6.931-16.261 16.726-31.327 27.715-45.674zm40.135 111.195c36.074-12.435 59.964 23.434 87.916 15.064-26.996-28.695-48.975-61.456-46.108-99.238.239-2.152-1.911-3.587-3.583-2.152-13.856 9.565-23.413 25.347-26.518 43.282-19.112-12.435-41.568-14.109-59.964-6.457 18.873 13.392 35.357 30.131 48.257 49.501z" fill="#00623d"/></g></svg>